<svg xmlns="http://www.w3.org/2000/svg" viewBox="0 0 130.77 400.95"><defs><style>.cls-1{fill:#333;}</style></defs><title>Asset 1</title><g id="Layer_2" data-name="Layer 2"><g id="Capa_1" data-name="Capa 1"><path class="cls-1" d="M76.54,122.91V238.4H54.23V218.28h7.3a5,5,0,1,0,0-10h-7.3V188.16h7.3a5,5,0,1,0,0-10h-7.3V158h7.3a5,5,0,0,0,5-5,5,5,0,0,0-5-5h-7.3V127.91h7.3a5,5,0,1,0,0-10H49.23a5,5,0,0,0-2.8.85l-.21.16-.18.13a5,5,0,0,0-1.82,3.86v120.5a5,5,0,0,0,5,5H81.55a5,5,0,0,0,5-5V122.91a5,5,0,0,0-10,0Z"/><path class="cls-1" d="M5,67.77a5,5,0,0,0,0,10H24.2V253.41a15,15,0,0,0,15,15H91.56a15,15,0,0,0,15-15V77.77h19.2a5,5,0,1,0,0-10ZM96.56,253.41a5.05,5.05,0,0,1-5,5H39.21a5,5,0,0,1-5-5V77.78H96.56Z"/><path class="cls-1" d="M103.51,0H27.26a5,5,0,1,0,0,10H43.79V52.76a5,5,0,0,0,10,0V10H77V52.75a5,5,0,1,0,10,0V10h16.53a5,5,0,0,0,5-5A5,5,0,0,0,103.51,0Z"/><path class="cls-1" d="M77.84,278.43H46.27a5,5,0,0,0,0,10h1.67v23.72a11.69,11.69,0,0,0,11.68,11.68h1v72.1a5,5,0,0,0,5,5,5,5,0,0,0,5-5v-72.1h.53a11.68,11.68,0,0,0,11.67-11.67V288.44H84.5a5,5,0,0,0,0-10Zm-5,33.74a1.68,1.68,0,0,1-1.66,1.66H59.62A1.67,1.67,0,0,1,58,312.17V288.44H72.82Z"/></g></g></svg>